# xmcd
#
# Track frame offsets: 
#        183
#        16858
#        34263
#        52618
#        68228
#        85688
#        101910
#        121618
#        137183
#        152760
#
# Disc length: 2231 seconds
#
# Revision: 2
# Processed by: cddbd v1.5.2PL0 Copyright (c) Steve Scherf et al.
# Submitted via: ExactAudioCopy v1.3
#
DISCID=7508b50a
DTITLE=The Bellamy Brothers - Greatest Hits - Vol. 2
DYEAR=1995
DGENRE=Country
TTITLE0=Feelin' the Feelin'
TTITLE1=When I'm Away From You
TTITLE2=Old Hippie
TTITLE3=Lie To You For Your Love
TTITLE4=Too Much Is Not Enough (With The Forester Sisters)
TTITLE5=Forget About Me
TTITLE6=World's Greatest Lover
TTITLE7=I Need More Of You
TTITLE8=Strong Weakness
TTITLE9=I Love Her Mind
EXTD=
EXTT0=
EXTT1=
EXTT2=
EXTT3=
EXTT4=
EXTT5=
EXTT6=
EXTT7=
EXTT8=
EXTT9=
PLAYORDER=
